<svg width="48" height="20" viewBox="0 0 48 20" fill="none" xmlns="http://www.w3.org/2000/svg">
<rect width="20" height="20" rx="2" fill="#F2F2F2"/>
<path d="M13.25 5H13.25C13.7141 5 14.1593 5.18437 14.4874 5.51256C14.8156 5.84075 15 6.28587 15 6.75V6.75C15 7.21413 14.8156 7.65925 14.4874 7.98744C14.1592 8.31563 13.7141 8.5 13.25 8.5H11.5V6.75C11.5 6.28587 11.6844 5.84075 12.0126 5.51256C12.3408 5.18437 12.7859 5 13.25 5V5Z" stroke="#727272" stroke-width="1.5" stroke-linecap="round" stroke-linejoin="round"/>
<path d="M8.5 8.5H6.75C6.28587 8.5 5.84075 8.31563 5.51256 7.98744C5.18437 7.65925 5 7.21413 5 6.75V6.75C5 6.28587 5.18437 5.84075 5.51256 5.51256C5.84075 5.18437 6.28587 5 6.75 5H6.75C7.21413 5 7.65925 5.18437 7.98744 5.51256C8.31563 5.84075 8.5 6.28587 8.5 6.75V8.5Z" stroke="#727272" stroke-width="1.5" stroke-linecap="round" stroke-linejoin="round"/>
<path d="M11.5 11.5H13.25C13.7141 11.5 14.1592 11.6844 14.4874 12.0126C14.8156 12.3408 15 12.7859 15 13.25V13.25C15 13.7141 14.8156 14.1593 14.4874 14.4874C14.1593 14.8156 13.7141 15 13.25 15H13.25C12.7859 15 12.3408 14.8156 12.0126 14.4874C11.6844 14.1592 11.5 13.7141 11.5 13.25V11.5Z" stroke="#727272" stroke-width="1.5" stroke-linecap="round" stroke-linejoin="round"/>
<path d="M6.75 15H6.75C6.28587 15 5.84075 14.8156 5.51256 14.4874C5.18437 14.1593 5 13.7141 5 13.25V13.25C5 12.7859 5.18437 12.3408 5.51256 12.0126C5.84075 11.6844 6.28587 11.5 6.75 11.5H8.5V13.25C8.5 13.7141 8.31563 14.1592 7.98744 14.4874C7.65925 14.8156 7.21413 15 6.75 15V15Z" stroke="#727272" stroke-width="1.5" stroke-linecap="round" stroke-linejoin="round"/>
<path d="M11.5 8.5H8.5V11.5H11.5V8.5Z" stroke="#727272" stroke-width="1.5" stroke-linecap="round" stroke-linejoin="round"/>
<rect x="28" width="20" height="20" rx="2" fill="#F2F2F2"/>
<path d="M34.2784 16V4.36364H41.4943V5.875H36.0341V9.42045H40.9773V10.9261H36.0341V16H34.2784Z" fill="#727272"/>
</svg>
